<svg viewBox="0 0 24 24" xmlns="http://www.w3.org/2000/svg"><path style="display:inline;fill:#fff;fill-opacity:1;stroke:none;stroke-width:.625152;stroke-linecap:square;stroke-linejoin:miter;stroke-miterlimit:4;stroke-dasharray:none;paint-order:stroke fill markers" d="M4.623 0A4.613 4.613 0 0 0 0 4.623v14.754A4.613 4.613 0 0 0 4.623 24h14.754A4.613 4.613 0 0 0 24 19.377V4.623A4.613 4.613 0 0 0 19.377 0H4.623zm0 4.736h4.76l5.955 8.657V4.736h4.039V19.264h-4.76l-5.955-8.657v8.657H4.623V4.736zm9.994 0v6.559l-2.256-3.28 2.256-3.279zm-5.234 7.967 2.256 3.281-2.256 3.28v-6.561z"/></svg>