<svg width="136.995" height="24" xmlns="http://www.w3.org/2000/svg"><path style="display:inline;fill:#fff;fill-opacity:1;stroke:none;stroke-width:.0479998px;stroke-linecap:butt;stroke-linejoin:miter;stroke-opacity:1" d="M0 0V24H6.672V9.699L16.511 24h7.863V0H17.702v14.301L7.864.001h-6.53Zm16.51 0L12.784 5.42l3.728 5.418zm9.056 0v24h15.353v-5.345h-8.68v-4.323h7.659V9.26h-7.66V5.345h8.681V0zm15.353 0 8.255 12-8.255 12h7.864l4.323-6.285L57.43 24h7.863l-8.255-12 8.255-12H57.43l-4.324 6.285L48.783 0Zm27.942 0v4.683h-2.376v5.613h2.376v6.37c0 4.68 2.262 7.118 6.783 7.319V10.296h3.512V4.683h-3.512V0Zm11.521 0V24H87.054V9.699l5.515 8.016L98.084 9.7V24H104.756V0h-7.864L92.57 6.285 88.246 0Zm25.566 0v24h6.672V0Zm6.672 0 8.256 12-8.256 12h7.864l4.323-6.285L129.131 24h7.864l-8.256-12 8.256-12h-7.864l-4.324 6.285L120.484 0ZM42.11 3.464v17.072L47.983 12zm21.992 0L58.23 12l5.872 8.536zm49.71 0v17.072L119.684 12zm21.991 0L129.931 12l5.872 8.536zM7.863 13.163V24l3.728-5.419Zm80.383 0V24l3.727-5.419zm8.646 0-3.727 5.418L96.892 24V18.504zm-20.057 5.065V24h2.356v-5.75h-1.963a3.46 3.46 0 0 1-.393-.022z"/></svg>