<?xml version="1.0" encoding="UTF-8" standalone="no"?>
<!-- Created with Inkscape (http://www.inkscape.org/) -->

<svg
   width="1337.1472mm"
   height="833.17145mm"
   viewBox="0 0 1337.1472 833.17145"
   version="1.1"
   id="svg109002"
   inkscape:version="1.1.2 (1:1.1+202202050950+0a00cf5339)"
   sodipodi:docname="logo.svg"
   xmlns:inkscape="http://www.inkscape.org/namespaces/inkscape"
   xmlns:sodipodi="http://sodipodi.sourceforge.net/DTD/sodipodi-0.dtd"
   xmlns="http://www.w3.org/2000/svg"
   xmlns:svg="http://www.w3.org/2000/svg">
  <sodipodi:namedview
     id="namedview109004"
     pagecolor="#ffffff"
     bordercolor="#999999"
     borderopacity="1"
     inkscape:pageshadow="0"
     inkscape:pageopacity="0"
     inkscape:pagecheckerboard="0"
     inkscape:document-units="mm"
     showgrid="false"
     inkscape:zoom="0.15055283"
     inkscape:cx="3231.4237"
     inkscape:cy="1780.106"
     inkscape:window-width="1366"
     inkscape:window-height="736"
     inkscape:window-x="0"
     inkscape:window-y="0"
     inkscape:window-maximized="1"
     inkscape:current-layer="layer1" />
  <defs
     id="defs108999" />
  <g
     inkscape:label="Layer 1"
     inkscape:groupmode="layer"
     id="layer1"
     transform="translate(598.98358,265.60037)">
    <rect
       style="display:inline;fill:#f0f0f0;fill-opacity:1;stroke:none;stroke-width:0.529167;stroke-linecap:square;stroke-linejoin:round;paint-order:stroke fill markers"
       id="rect101498"
       width="1337.1472"
       height="833.17145"
       x="-598.98358"
       y="-265.60037" />
    <path
       id="text78352"
       style="font-style:normal;font-variant:normal;font-weight:normal;font-stretch:normal;font-size:225.518px;line-height:1.25;font-family:Nakula;-inkscape-font-specification:Nakula;word-spacing:0px;display:inline;fill:#642f87;fill-opacity:1;stroke:none;stroke-width:10.5833;stroke-linejoin:miter;stroke-miterlimit:4;stroke-dasharray:none;paint-order:stroke fill markers"
       d="m 301.44022,-63.186588 c -10.2041,0 -19.27037,3.487317 -27.19887,10.461379 -7.92832,6.973885 -11.89281,16.333682 -11.89281,28.079422 0,9.0297 2.71645,16.9579791 8.14885,23.78511005 5.43242,6.82730825 14.46165,13.54474295 27.08828,20.15174295 16.44404,8.662459 27.63964,17.471697 33.58607,26.427843 2.12884,3.156656 3.19307,7.524414 3.19307,13.103592 0,7.487888 -2.56931,13.617914 -7.70805,18.389568 -5.13874,4.698312 -11.81912,7.047124 -20.04115,7.047124 -19.45392,0 -34.65021,-13.324099 -45.58843,-39.972238 h -5.1754 l 6.71742,47.900954 h 5.06481 c 0.2203,-4.991973 2.31297,-7.48792 6.27714,-7.48792 2.78958,0 6.31306,0.8441 10.57092,2.532671 8.95615,3.450167 17.83877,5.175382 26.64799,5.175382 12.99387,0 23.89523,-3.927792 32.70446,-11.782742 8.88277,-7.928319 13.32425,-17.691735 13.32425,-29.290713 0,-9.249656 -3.3402,-17.728496 -10.02056,-25.43669 C 340.53119,18.189701 329.81311,10.261422 314.98409,2.1127846 292.88733,-9.8530838 281.83933,-21.56256 281.83933,-33.014785 c 0,-6.239934 2.12887,-11.268496 6.3867,-15.085901 4.33123,-3.890786 10.02059,-5.83582 17.06822,-5.83582 10.27748,0 19.41677,4.110911 27.41848,12.333097 6.16654,6.313313 10.75515,15.122551 13.76505,26.427845 h 5.72575 l -5.06532,-48.011024 h -4.73512 c -0.8809,5.065361 -3.26641,7.598503 -7.15719,7.598503 -2.20239,0 -5.5059,-0.881295 -9.91049,-2.643248 -8.14864,-3.303408 -16.11363,-4.955255 -23.89519,-4.955255 z m -728.64028,3.030308 v 4.294827 c 5.13876,0 9.24933,0.990854 12.33258,2.972946 2.12892,1.321395 5.28581,4.478287 9.47023,9.470223 v 99.434755 c 0,11.598896 -1.32131,19.160159 -3.9641,22.68388 -2.56938,3.450325 -8.51553,5.505846 -17.83871,6.166564 v 4.294293 h 52.96576 v -4.294293 c -8.66248,-0.440478 -14.38867,-2.496026 -17.17828,-6.166564 -2.7162,-3.743934 -4.07417,-11.305196 -4.07417,-22.68388 v -88.423543 l 99.76549,124.100951 h 3.74396 V -27.011016 c 0,-13.507591 2.20218,-21.766424 6.60683,-24.776266 2.78961,-1.982092 7.74491,-3.340063 14.86575,-4.074171 v -4.294827 h -52.96627 v 4.294827 c 7.26768,0.587288 12.29629,1.798617 15.0859,3.633886 4.33123,2.863022 6.49727,11.268495 6.49727,25.216551 V 48.968839 L -388.65977,-60.15628 Z m 162.86191,0.05323 v 4.294312 c 8.29537,0.660752 13.61783,2.239211 15.96696,4.73511 2.42271,2.496082 3.6339,7.67175 3.6339,15.526702 v 100.20576 c 0,7.928319 -1.24788,13.14069 -3.74396,15.636769 -2.42253,2.49592 -7.70829,4.037145 -15.8569,4.62452 v 4.294848 h 121.67885 l 10.24073,-38.100526 h -6.3867 c -5.57916,12.186177 -11.8191,20.187838 -18.71977,24.005246 -6.82715,3.817409 -18.31629,5.726272 -34.46664,5.726272 h -6.05647 c -12.92032,0 -20.29788,-0.880772 -22.13303,-2.642738 -1.0278,-0.660744 -1.54202,-3.010085 -1.54202,-7.047627 V 15.436521 h 34.68677 c 9.24983,0 15.30646,1.285087 18.16944,3.854545 2.93653,2.495902 5.13874,8.442114 6.60683,17.838703 h 5.17538 v -52.305333 h -5.17538 c -1.32133,8.0017039 -2.97318,13.250762 -4.95525,15.74684114 -2.86298,3.74385416 -9.46999,5.61567796 -19.82102,5.61567796 H -221.7232 V -43.805859 c 0,-2.863138 0.40378,-4.845386 1.21129,-5.946407 0.80751,-1.174573 2.86314,-1.761649 6.16656,-1.761649 h 30.50252 c 12.7,0 21.10547,1.431346 25.21656,4.294312 4.11091,2.789587 7.12071,9.250008 9.02941,19.380729 h 5.61621 l -0.66096,-32.26418 z m 139.95786,0 v 4.294312 c 7.48786,0.367067 13.43443,2.385824 17.83921,6.056476 4.77168,4.037542 12.442931,13.838163 23.014093,29.401307 l 24.556138,36.007621 -35.457791,43.60664 c -9.61673,11.819112 -16.07664,19.013213 -19.38023,21.582661 -2.93634,2.275601 -7.37782,3.633549 -13.32423,4.07416 v 4.294848 h 52.635548 v -4.294848 c -6.607016,-0.440611 -11.121866,-1.211501 -13.544391,-2.312512 -2.422525,-1.101195 -3.63339,-2.972831 -3.63339,-5.615675 0,-3.156664 3.927289,-9.617075 11.782239,-19.380729 l 26.758583,-33.365405 21.472074,31.603754 c 7.634817,11.305304 11.452516,18.683184 11.452516,22.133536 0,4.11091 -3.743986,6.276445 -11.231879,6.496764 -0.660744,0 -2.679515,0.146579 -6.056472,0.440267 v 4.294848 h 66.95096 V 84.920123 C 23.359519,84.259379 18.80813,82.9748 15.79823,81.066096 12.788489,79.084023 8.9711336,74.826348 4.346217,68.292727 L -38.929694,6.4070964 -6.0051031,-34.556293 c 7.0474416,-8.809389 12.6268955,-14.461722 16.7379911,-16.957622 3.890804,-2.422707 9.506426,-3.854389 16.847555,-4.294827 v -4.294312 h -53.626701 v 4.294312 c 6.093195,0.220305 10.240962,0.844589 12.443168,1.872236 2.202392,0.95444 3.303667,2.752704 3.303667,5.395537 0,3.00972 -3.010138,8.185052 -9.029938,15.526184 l -25.436671,31.1629551 -9.469702,-13.3237341 c -12.77358,-17.985668 -19.160595,-29.254148 -19.160595,-33.805688 0,-4.111101 3.597222,-6.313326 10.791586,-6.606833 l 6.386698,-0.220657 v -4.294312 z m 163.082547,0 -1.321383,38.320141 h 5.396072 c 2.716027,-12.259556 6.202997,-20.114112 10.460857,-23.564453 4.331229,-3.523726 12.809882,-5.285981 25.436671,-5.285981 h 12.112969 v 112.75951 c 0,9.543362 -1.174671,15.599992 -3.523827,18.16944 -2.349129,2.49592 -8.221953,4.037145 -17.618551,4.62452 v 4.294848 H 135.49478 V 84.920123 C 126.24494,84.479512 120.29841,83.047825 117.65556,80.6253 115.0863,78.202775 113.80154,72.88084 113.80154,64.658834 V -50.633347 h 12.22303 c 12.84692,0 21.36246,1.725565 25.54677,5.175912 4.25783,3.376964 7.67177,11.268212 10.24122,23.674522 h 5.39554 l -1.32138,-38.320141 z m 136.654693,0 v 4.294312 c 9.54334,0.587372 15.56277,2.055751 18.05885,4.404899 2.56929,2.275772 3.85402,7.561522 3.85402,15.856913 v 100.20576 c 0,8.442325 -1.28473,13.837973 -3.85402,16.187129 -2.56945,2.349156 -8.58888,3.707103 -18.05885,4.07416 v 4.294848 h 66.95043 v -4.294848 c -9.24983,-0.367057 -15.26923,-1.762046 -18.05884,-4.184756 -2.71621,-2.495894 -4.07469,-7.854527 -4.07469,-16.076533 V -35.54693 c 0,-8.222017 1.32178,-13.544465 3.96462,-15.966985 2.64285,-2.422707 8.69895,-3.854389 18.16891,-4.294827 v -4.294312 z m 199.64104,0 v 4.294312 c 9.24967,0.587372 15.1225,2.055751 17.61858,4.404899 2.49589,2.349146 3.74396,7.634896 3.74396,15.856913 v 91.616627 c 0,11.598984 -1.32178,19.160167 -3.96463,22.683888 -2.56929,3.450352 -8.51551,5.505794 -17.83871,6.166538 v 4.294848 h 52.96628 v -4.294848 c -8.66246,-0.440611 -14.38868,-2.496053 -17.17829,-6.166538 -2.71618,-3.74404 -4.07416,-11.305223 -4.07416,-22.683888 V -34.77643 l 56.59964,123.991405 h 3.1936 L 523.76515,-40.061901 V 62.126163 c 0,9.396597 -1.21121,15.416212 -3.63389,18.05887 -2.34916,2.569449 -7.96497,4.147715 -16.84756,4.73509 v 4.294848 h 63.09641 v -4.294848 c -8.22201,-0.587375 -13.54447,-2.092431 -15.96697,-4.514956 -2.42253,-2.496079 -3.6339,-7.744619 -3.6339,-15.746333 V -35.54693 c 0,-7.928332 1.17467,-13.104002 3.5238,-15.526702 2.42256,-2.495899 7.78166,-4.074358 16.07707,-4.73511 v -4.294312 H 521.56268 L 471.67994,53.757178 419.59475,-60.103054 Z" />
    <path
       id="path78354"
       style="font-size:852.353px;line-height:1.25;font-family:Nakula;-inkscape-font-specification:Nakula;word-spacing:0px;display:inline;fill:#ffd101;fill-opacity:1;stroke-width:3.02032"
       d="m -317.38092,-49.672682 -28.09079,35.327042 14.28853,17.9694441 24.00369,-29.8591571 v -0.776182 c 0,-6.700308 -0.55057,-11.926639 -1.45674,-15.444533 -0.90488,-3.51155 -2.14379,-5.008399 -2.66237,-5.35368 -0.78317,-0.513289 -2.96341,-1.242756 -6.08232,-1.862934 z m -49.11741,61.770389 -23.69727,29.800764 v 14.118 c 0,8.97415 1.23625,15.186937 2.35438,18.086242 L -352.247,29.825306 Z" />
    <path
       id="text92887"
       style="font-style:normal;font-variant:normal;font-weight:normal;font-stretch:normal;font-size:225.518px;line-height:1.25;font-family:Nakula;-inkscape-font-specification:Nakula;word-spacing:0px;display:inline;fill:#ffd101;fill-opacity:1;stroke:none;stroke-width:10.5833;stroke-linejoin:miter;stroke-miterlimit:4;stroke-dasharray:none;paint-order:stroke fill markers"
       d="m 301.44022,209.56316 c -10.2041,0 -19.27037,3.48681 -27.19887,10.46086 -7.92832,6.97388 -11.89281,16.33371 -11.89281,28.07943 0,9.0297 2.71645,16.9585 8.14885,23.78562 5.43242,6.82731 14.46165,13.54423 27.08828,20.15122 16.44404,8.66246 27.63964,17.47171 33.58607,26.42786 2.12884,3.15666 3.19307,7.5244 3.19307,13.10359 0,7.48789 -2.56931,13.61789 -7.70805,18.38957 -5.13874,4.69829 -11.81912,7.04763 -20.04115,7.04763 -19.45392,0 -34.65021,-13.3241 -45.58843,-39.97222 h -5.1754 l 6.71742,47.90043 h 5.06481 c 0.2203,-4.992 2.31297,-7.48792 6.27714,-7.48792 2.78958,0 6.31306,0.84461 10.57092,2.53318 8.95615,3.45016 17.83877,5.17488 26.64799,5.17488 12.99387,0 23.89523,-3.92729 32.70446,-11.78222 8.88277,-7.92834 13.32425,-17.69226 13.32425,-29.29125 0,-9.24965 -3.3402,-17.72848 -10.02056,-25.43667 -6.60702,-7.70821 -17.3251,-15.63648 -32.15412,-23.78512 -22.09676,-11.96588 -33.14476,-23.67483 -33.14476,-35.12706 0,-6.23993 2.12887,-11.2685 6.3867,-15.0859 4.33123,-3.89078 10.02059,-5.83634 17.06822,-5.83634 10.27748,0 19.41677,4.11091 27.41848,12.3331 6.16654,6.3133 10.75515,15.12255 13.76505,26.42785 h 5.72575 l -5.06532,-48.01052 h -4.73512 c -0.8809,5.06537 -3.26641,7.59799 -7.15719,7.59799 -2.20239,0 -5.5059,-0.88078 -9.91049,-2.64271 -8.14864,-3.30343 -16.11363,-4.95528 -23.89519,-4.95528 z m -728.64028,3.03033 v 4.29429 c 5.13876,0 9.24933,0.99137 12.33258,2.97347 2.12892,1.3214 5.28581,4.47778 9.47023,9.4697 v 99.43528 c 0,11.59891 -1.32131,19.16017 -3.9641,22.68389 -2.56938,3.4503 -8.51553,5.50585 -17.83871,6.16654 v 4.29432 h 52.96576 v -4.29432 c -8.66248,-0.44045 -14.38867,-2.496 -17.17828,-6.16654 -2.7162,-3.74396 -4.07417,-11.30522 -4.07417,-22.68389 v -88.42354 l 99.76549,124.10094 h 3.74396 V 245.73821 c 0,-13.50759 2.20218,-21.7664 6.60683,-24.77624 2.78961,-1.9821 7.74491,-3.34008 14.86575,-4.07419 v -4.29429 h -52.96627 v 4.29429 c 7.26768,0.58729 12.29629,1.79864 15.0859,3.63389 4.33123,2.86303 6.49727,11.2685 6.49727,25.21654 v 75.98039 l -86.77195,-109.12511 z m 162.86191,0.0527 v 4.29429 c 8.29537,0.66077 13.61783,2.23923 15.96696,4.73512 2.42271,2.49608 3.6339,7.67175 3.6339,15.5267 v 100.20578 c 0,7.92832 -1.24788,13.14069 -3.74396,15.63677 -2.42253,2.49589 -7.70829,4.03767 -15.8569,4.62505 v 4.29429 h 121.67885 l 10.24073,-38.1005 h -6.3867 c -5.57916,12.18618 -11.8191,20.18837 -18.71977,24.00578 -6.82715,3.8174 -18.31629,5.72574 -34.46664,5.72574 h -6.05647 c -12.92032,0 -20.29788,-0.8808 -22.13303,-2.64274 -1.0278,-0.66074 -1.54202,-3.01009 -1.54202,-7.04763 v -55.71857 h 34.68677 c 9.24983,0 15.30646,1.28457 18.16944,3.85402 2.93653,2.49592 5.13874,8.44214 6.60683,17.83871 h 5.17538 v -52.30532 h -5.17538 c -1.32133,8.00169 -2.97318,13.25076 -4.95525,15.74684 -2.86298,3.74385 -9.46999,5.61567 -19.82102,5.61567 h -34.68677 v -49.9928 c 0,-2.86314 0.40378,-4.84487 1.21129,-5.94591 0.80751,-1.17456 2.86314,-1.76215 6.16656,-1.76215 h 30.50252 c 12.7,0 21.10547,1.43185 25.21656,4.29483 4.11091,2.78958 7.12071,9.24948 9.02941,19.38019 h 5.61621 l -0.66096,-32.26416 z m 139.95786,0 v 4.29429 c 7.48786,0.36709 13.43443,2.38636 17.83921,6.057 4.77168,4.03755 12.442931,13.83766 23.014093,29.40079 l 24.556138,36.00816 -35.457791,43.60611 c -9.61673,11.81912 -16.07664,19.01322 -19.38023,21.58267 -2.93634,2.2756 -7.37782,3.63405 -13.32423,4.07469 v 4.29429 h 52.635548 v -4.29429 c -6.607016,-0.44064 -11.121866,-1.2115 -13.544391,-2.31254 -2.422525,-1.10117 -3.63339,-2.97336 -3.63339,-5.61618 0,-3.15666 3.927289,-9.61657 11.782239,-19.38023 l 26.758583,-33.36538 21.472074,31.60323 c 7.634817,11.30528 11.452516,18.68318 11.452516,22.13354 0,4.11091 -3.743986,6.27644 -11.231879,6.49676 -0.660744,0 -2.679515,0.14711 -6.056472,0.4408 v 4.29429 h 66.95096 V 357.6699 C 23.359519,357.00913 18.80813,355.72404 15.79823,353.81534 12.788489,351.83327 8.9711336,347.57559 4.346217,341.04197 l -43.275911,-61.88511 32.9245909,-40.9634 c 7.0474416,-8.80938 12.6268955,-14.46223 16.7379911,-16.95813 3.890804,-2.42271 9.506426,-3.85439 16.847555,-4.29485 v -4.29429 h -53.626701 v 4.29429 c 6.093195,0.22032 10.240962,0.84461 12.443168,1.87225 2.202392,0.95446 3.303667,2.75323 3.303667,5.39607 0,3.00971 -3.010138,8.18504 -9.029938,15.52617 l -25.436671,31.16294 -9.469702,-13.32423 c -12.77358,-17.98568 -19.160595,-29.25416 -19.160595,-33.8057 0,-4.1111 3.597222,-6.3133 10.791586,-6.60683 l 6.386698,-0.22067 v -4.29429 z m 163.082547,0 -1.321383,38.32066 h 5.396072 c 2.716027,-12.25957 6.202997,-20.11463 10.460857,-23.56498 4.331229,-3.52372 12.809882,-5.28545 25.436671,-5.28545 h 12.112969 v 112.75899 c 0,9.54336 -1.174671,15.59999 -3.523827,18.16944 -2.349129,2.49589 -8.221953,4.03767 -17.618551,4.62505 v 4.29429 h 65.849715 v -4.29429 c -9.24984,-0.44064 -15.19637,-1.87233 -17.83922,-4.29483 -2.56926,-2.42255 -3.85402,-7.74499 -3.85402,-15.96699 V 222.11642 h 12.22303 c 12.84692,0 21.36246,1.72503 25.54677,5.17538 4.25783,3.37696 7.67177,11.26874 10.24122,23.67505 h 5.39554 l -1.32138,-38.32066 z m 136.654693,0 v 4.29429 c 9.54334,0.58738 15.56277,2.05576 18.05885,4.40492 2.56929,2.27576 3.85402,7.56153 3.85402,15.8569 v 100.20578 c 0,8.44232 -1.28473,13.83797 -3.85402,16.18713 -2.56945,2.34913 -8.58888,3.7076 -18.05885,4.07469 v 4.29429 h 66.95043 v -4.29429 c -9.24983,-0.36709 -15.26923,-1.76208 -18.05884,-4.18476 -2.71621,-2.49592 -4.07469,-7.85506 -4.07469,-16.07706 V 237.2023 c 0,-8.222 1.32178,-13.54444 3.96462,-15.96697 2.64285,-2.42271 8.69895,-3.85439 18.16891,-4.29485 v -4.29429 z m 199.64104,0 v 4.29429 c 9.24967,0.58738 15.1225,2.05576 17.61858,4.40492 2.49589,2.34916 3.74396,7.6349 3.74396,15.8569 v 91.61664 c 0,11.59899 -1.32178,19.16017 -3.96463,22.68389 -2.56929,3.45032 -8.51551,5.5063 -17.83871,6.16707 v 4.29429 h 52.96628 v -4.29429 c -8.66246,-0.44064 -14.38868,-2.49661 -17.17829,-6.16707 -2.71618,-3.74404 -4.07416,-11.30522 -4.07416,-22.68389 v -90.84615 l 56.59964,123.9914 h 3.1936 l 57.70089,-129.27684 v 102.18806 c 0,9.3966 -1.21121,15.41621 -3.63389,18.05884 -2.34916,2.56948 -7.96497,4.14827 -16.84756,4.73565 v 4.29429 h 63.09641 v -4.29429 c -8.22201,-0.58738 -13.54447,-2.09246 -15.96697,-4.51499 -2.42253,-2.49607 -3.6339,-7.74514 -3.6339,-15.74683 V 237.2023 c 0,-7.92832 1.17467,-13.10399 3.5238,-15.5267 2.42256,-2.49589 7.78166,-4.07435 16.07707,-4.73512 v -4.29429 H 521.56268 L 471.67994,326.50643 419.59475,212.64619 Z" />
    <path
       id="path92889"
       style="font-size:852.353px;line-height:1.25;font-family:Nakula;-inkscape-font-specification:Nakula;word-spacing:0px;display:inline;fill:#642f87;fill-opacity:1;stroke-width:3.02032"
       d="m -317.38092,223.07657 -28.09079,35.32703 14.28853,17.96944 24.00369,-29.85915 v -0.77568 c 0,-6.70031 -0.55057,-11.92662 -1.45674,-15.44452 -0.90488,-3.51155 -2.14379,-5.00891 -2.66237,-5.35419 -0.78317,-0.51329 -2.96341,-1.24277 -6.08232,-1.86293 z m -49.11741,61.77036 -23.69727,29.80079 v 14.11798 c 0,8.97414 1.23625,15.18695 2.35438,18.08626 l 35.59422,-44.27741 z" />
  </g>
</svg>
