<svg viewBox="0 0 24 24" xmlns="http://www.w3.org/2000/svg"><path style="fill:#642f87;" d="M.23 0h23.54c.127 0 .23.101.23.227v23.546a.228.228 0 0 1-.23.227H.23a.228.228 0 0 1-.23-.227V.227C0 .101.103 0 .23 0Z"/><path style="fill:#ffd101;" d="M24.23 0h23.54c.127 0 .23.101.23.227v23.546a.228.228 0 0 1-.23.227H24.23a.228.228 0 0 1-.23-.227V.227c0-.126.103-.227.23-.227Z"/><path style="fill:#f0f0f0;" d="M48.23 0h23.54c.127 0 .23.101.23.227v23.546a.228.228 0 0 1-.23.227H48.23a.228.228 0 0 1-.23-.227V.227c0-.126.103-.227.23-.227Z"/></svg>